<svg xmlns="http://www.w3.org/2000/svg" width="710.388" height="137.398" viewBox="0 0 710.388 137.398">
  <g id="Synthesis_logo_white" transform="translate(-65.751 -58.3)">
    <path id="Path_57" data-name="Path 57" d="M183.122,93.617,145.674,93.6l-18.74,32.422,18.708,32.44,37.448.018,18.739-32.421Zm-3.336,59.132-30.834-.015-15.4-26.71,15.429-26.7,30.834.015,15.4,26.71Z" fill="#fff"/>
    <path id="Path_58" data-name="Path 58" d="M121.973,58.321,84.525,58.3,65.785,90.724l18.709,32.44,37.447.018,18.74-32.421Zm-3.336,59.131L87.8,117.437,72.4,90.727,87.829,64.033l30.834.015,15.4,26.71Z" fill="#fff"/>
    <path id="Path_59" data-name="Path 59" d="M121.939,128.931l-37.448-.018-18.74,32.422,18.708,32.439,37.448.019,18.739-32.422Z" fill="#fff"/>
    <g id="Group_11" data-name="Group 11">
      <path id="Path_60" data-name="Path 60" d="M263.769,145.1a6.4,6.4,0,0,0-3.605-5.74q-3.607-2.1-11.578-3.752-26.528-5.578-26.517-22.555,0-9.9,8.22-16.524t21.48-6.621q14.157.008,22.642,6.677a21.01,21.01,0,0,1,8.479,17.323l-19.861-.01a9.618,9.618,0,0,0-2.746-7.046q-2.748-2.784-8.589-2.787-5.018,0-7.768,2.265a7.156,7.156,0,0,0-2.751,5.771,6.117,6.117,0,0,0,3.124,5.328q3.126,2.028,10.548,3.509a86.377,86.377,0,0,1,12.506,3.34q15.735,5.781,15.728,20.007,0,10.17-8.736,16.455T251.8,167.016a39.328,39.328,0,0,1-16.595-3.341,27.84,27.84,0,0,1-11.37-9.146,21.237,21.237,0,0,1-4.117-12.544l18.831.009a10.361,10.361,0,0,0,3.914,8.112q3.64,2.82,9.756,2.821,5.7,0,8.627-2.16a6.737,6.737,0,0,0,2.923-5.667Z" fill="#fff"/>
      <path id="Path_61" data-name="Path 61" d="M317.322,137.565,331.09,91.32l21.3.01-29.937,85.892-1.652,3.917q-6.675,14.565-22,14.559a31.3,31.3,0,0,1-8.8-1.31l.007-15.052,3.024.071q5.634,0,8.42-1.715a11.285,11.285,0,0,0,4.366-5.7l2.34-6.116-26-74.576,21.373.01Z" fill="#fff"/>
      <path id="Path_62" data-name="Path 62" d="M376.553,91.342l.614,8.591q7.977-9.96,21.379-9.954,11.819.006,17.59,6.949t5.9,20.759l-.024,48.038-19.861-.01.023-47.557q0-6.323-2.744-9.176t-9.14-2.858a13.666,13.666,0,0,0-12.58,7.142l-.025,52.437-19.862-.009.037-74.361Z" fill="#fff"/>
      <path id="Path_63" data-name="Path 63" d="M458.147,73.1l-.009,18.281,12.714.006-.007,14.569-12.714-.006-.018,37.113q0,4.122,1.577,5.91t6.047,1.791a31.582,31.582,0,0,0,5.842-.48l-.007,15.052a40.908,40.908,0,0,1-12.028,1.78q-20.893-.01-21.3-21.109l.02-40.067H427.41l.007-14.569h10.859l.009-18.281Z" fill="#fff"/>
      <path id="Path_64" data-name="Path 64" d="M496.151,99.51a24.785,24.785,0,0,1,19.866-9.474q24.19.012,24.521,28.12l-.023,47.627-19.861-.01.023-47.077q0-6.391-2.745-9.45t-9.139-3.064q-8.729,0-12.648,6.729l-.026,52.85-19.862-.01.052-105.561,19.862.01Z" fill="#fff"/>
      <path id="Path_65" data-name="Path 65" d="M582.789,167.177q-16.357-.007-26.626-10.046T545.9,130.392v-1.924a44.916,44.916,0,0,1,4.34-20.031,31.779,31.779,0,0,1,12.274-13.6,34.419,34.419,0,0,1,18.111-4.767q15.258.007,24.015,9.633t8.749,27.288V135.1l-47.352-.023a18.454,18.454,0,0,0,5.8,11.687,17.555,17.555,0,0,0,12.265,4.4q11.477.006,17.941-8.307L611.8,153.79a29.822,29.822,0,0,1-12.1,9.856,39.687,39.687,0,0,1-16.908,3.531Zm-2.238-61.1a12.4,12.4,0,0,0-9.589,4q-3.679,4-4.714,11.456l27.628.013v-1.588q-.137-6.627-3.569-10.252t-9.756-3.625Z" fill="#fff"/>
      <path id="Path_66" data-name="Path 66" d="M662.8,145.294a6.4,6.4,0,0,0-3.606-5.74q-3.607-2.1-11.578-3.752-26.527-5.578-26.517-22.555,0-9.9,8.22-16.524T650.795,90.1q14.155.007,22.641,6.677a21.01,21.01,0,0,1,8.479,17.323l-19.861-.01a9.618,9.618,0,0,0-2.746-7.046q-2.748-2.784-8.589-2.787-5.018,0-7.767,2.264A7.158,7.158,0,0,0,640.2,112.3a6.119,6.119,0,0,0,3.124,5.328q3.126,2.028,10.548,3.509a86.374,86.374,0,0,1,12.506,3.34q15.735,5.781,15.729,20.007-.006,10.17-8.737,16.455t-22.545,6.277a39.328,39.328,0,0,1-16.6-3.341,27.839,27.839,0,0,1-11.369-9.146,21.232,21.232,0,0,1-4.118-12.545l18.831.01a10.362,10.362,0,0,0,3.914,8.112q3.64,2.821,9.757,2.821,5.7,0,8.626-2.16a6.738,6.738,0,0,0,2.934-5.673Z" fill="#fff"/>
      <path id="Path_67" data-name="Path 67" d="M686.342,72.251a9.787,9.787,0,0,1,2.993-7.353,12.886,12.886,0,0,1,16.254.008,10.5,10.5,0,0,1-.041,14.777,12.745,12.745,0,0,1-16.151-.008A9.757,9.757,0,0,1,686.342,72.251ZM707.4,165.864l-19.93-.009.036-74.361,19.93.01Z" fill="#fff"/>
      <path id="Path_68" data-name="Path 68" d="M756.827,145.34a6.4,6.4,0,0,0-3.606-5.74q-3.607-2.1-11.578-3.752-26.526-5.579-26.517-22.555,0-9.9,8.221-16.524t21.48-6.621q14.156.008,22.641,6.677a21.01,21.01,0,0,1,8.479,17.323l-19.861-.01a9.618,9.618,0,0,0-2.746-7.046q-2.748-2.785-8.589-2.787-5.018,0-7.767,2.264a7.158,7.158,0,0,0-2.752,5.772,6.12,6.12,0,0,0,3.125,5.328q3.125,2.028,10.547,3.509a86.308,86.308,0,0,1,12.506,3.34q15.735,5.78,15.729,20.007-.006,10.17-8.736,16.455t-22.546,6.277a39.343,39.343,0,0,1-16.6-3.341,27.845,27.845,0,0,1-11.369-9.146,21.232,21.232,0,0,1-4.118-12.545l18.831.01a10.363,10.363,0,0,0,3.913,8.111q3.642,2.822,9.758,2.822,5.7,0,8.626-2.16A6.736,6.736,0,0,0,756.827,145.34Z" fill="#fff"/>
    </g>
  </g>
</svg>
