<svg id="Synthesis_Logo" xmlns="http://www.w3.org/2000/svg" width="710.388" height="137.395"><path id="Path_45" data-name="Path 45" d="M117.371 35.315 79.923 35.3l-18.74 32.419 18.709 32.439 37.447.019 18.74-32.422Zm-3.336 59.131L83.2 94.431 67.8 67.722l15.427-26.695 30.834.015 15.4 26.71Z" fill="#023348"/><path id="Path_46" data-name="Path 46" d="M56.222.018 18.775 0 .035 32.422l18.708 32.439 37.448.019L74.93 32.458ZM52.886 59.15l-30.834-.015-15.4-26.71L22.079 5.73l30.833.015 15.4 26.71Z" fill="#023348"/><path id="Path_47" data-name="Path 47" d="M56.188 70.629 18.74 70.61 0 103.032l18.708 32.44 37.448.018L74.9 103.069Z" fill="#023348"/><g id="Group_10" data-name="Group 10" fill="#023348"><path id="Path_48" data-name="Path 48" d="M198.019 86.8a6.4 6.4 0 0 0-3.606-5.741q-3.608-2.1-11.578-3.751-26.526-5.58-26.517-22.555 0-9.9 8.221-16.524t21.48-6.621q14.155.006 22.641 6.677a21.007 21.007 0 0 1 8.479 17.315h-19.861a9.618 9.618 0 0 0-2.746-7.046q-2.748-2.785-8.589-2.788-5.018 0-7.767 2.265a7.157 7.157 0 0 0-2.752 5.771 6.117 6.117 0 0 0 3.125 5.328q3.124 2.029 10.547 3.51a86.343 86.343 0 0 1 12.504 3.34q15.735 5.78 15.729 20.006-.006 10.172-8.737 16.455t-22.545 6.277a39.343 39.343 0 0 1-16.6-3.34 27.845 27.845 0 0 1-11.369-9.146 21.234 21.234 0 0 1-4.118-12.545l18.84.013a10.363 10.363 0 0 0 3.914 8.113q3.641 2.819 9.757 2.821 5.7 0 8.626-2.161a6.734 6.734 0 0 0 2.924-5.669Z"/><path id="Path_49" data-name="Path 49" d="m251.571 79.263 13.768-46.246 21.3.011-29.937 85.891-1.652 3.918q-6.674 14.563-22 14.558a31.268 31.268 0 0 1-8.8-1.31l.007-15.051 3.024.071q5.634 0 8.42-1.715a11.294 11.294 0 0 0 4.366-5.7l2.34-6.116-26.007-74.58 21.381.006Z"/><path id="Path_50" data-name="Path 50" d="m310.8 33.04.614 8.59q7.977-9.96 21.379-9.954 11.82.006 17.59 6.949t5.9 20.759l-.023 48.038-19.862-.009.023-47.558q0-6.322-2.744-9.176t-9.139-2.857a13.665 13.665 0 0 0-12.581 7.142l-.025 52.437-19.861-.01.036-74.361Z"/><path id="Path_51" data-name="Path 51" d="m392.4 14.8-.009 18.281 12.714.007-.005 14.569-12.714-.006-.018 37.112q0 4.122 1.578 5.91t6.046 1.791a31.579 31.579 0 0 0 5.842-.479l-.007 15.051a40.865 40.865 0 0 1-12.028 1.781q-20.892-.01-21.3-21.109l.02-40.067-10.859-.005.007-14.57 10.859.006.009-18.281Z"/><path id="Path_52" data-name="Path 52" d="M430.4 41.207a24.785 24.785 0 0 1 19.866-9.473q24.189.012 24.521 28.119l-.024 47.627-19.861-.009.023-47.077q0-6.391-2.745-9.451t-9.139-3.063q-8.727 0-12.648 6.729l-.026 52.85-19.862-.01.052-105.561 19.863.012Z"/><path id="Path_53" data-name="Path 53" d="M517.038 108.875q-16.358-.007-26.626-10.047T480.15 72.09v-1.925a44.919 44.919 0 0 1 4.34-20.031 31.784 31.784 0 0 1 12.274-13.6 34.438 34.438 0 0 1 18.111-4.767q15.258.008 24.015 9.633t8.749 27.288V76.8l-47.352-.023a18.456 18.456 0 0 0 5.8 11.686 17.561 17.561 0 0 0 12.265 4.4q11.476 0 17.941-8.307l9.754 10.933a29.823 29.823 0 0 1-12.1 9.856 39.7 39.7 0 0 1-16.909 3.53Zm-2.238-61.1a12.4 12.4 0 0 0-9.589 4q-3.68 4-4.714 11.457l27.628.013v-1.586q-.137-6.627-3.569-10.253t-9.756-3.628Z"/><path id="Path_54" data-name="Path 54" d="M597.044 86.992a6.4 6.4 0 0 0-3.606-5.741q-3.607-2.1-11.578-3.751-26.526-5.58-26.517-22.555 0-9.9 8.221-16.524t21.48-6.621q14.155.006 22.641 6.677a21.007 21.007 0 0 1 8.479 17.323l-19.864-.01a9.617 9.617 0 0 0-2.746-7.045q-2.748-2.785-8.589-2.788-5.017 0-7.767 2.265a7.157 7.157 0 0 0-2.752 5.771 6.119 6.119 0 0 0 3.125 5.328q3.125 2.03 10.547 3.51a86.184 86.184 0 0 1 12.506 3.339q15.735 5.781 15.729 20.007-.006 10.171-8.736 16.455t-22.546 6.277a39.343 39.343 0 0 1-16.595-3.34 27.839 27.839 0 0 1-11.369-9.147 21.236 21.236 0 0 1-4.118-12.544l18.831.009A10.363 10.363 0 0 0 575.738 92q3.64 2.819 9.756 2.821 5.7 0 8.626-2.161a6.734 6.734 0 0 0 2.924-5.669Z"/><path id="Path_55" data-name="Path 55" d="M620.591 13.948a9.785 9.785 0 0 1 2.993-7.348 12.888 12.888 0 0 1 16.254.007 9.725 9.725 0 0 1 3.02 7.356 9.753 9.753 0 0 1-3.058 7.417 12.741 12.741 0 0 1-16.151-.008 9.754 9.754 0 0 1-3.058-7.424Zm21.053 93.614-19.93-.01.036-74.361 19.93.01Z"/><path id="Path_56" data-name="Path 56" d="M691.076 87.038a6.4 6.4 0 0 0-3.605-5.741q-3.607-2.1-11.579-3.751-26.526-5.58-26.517-22.555 0-9.9 8.221-16.524t21.48-6.622q14.156.008 22.641 6.678a21.011 21.011 0 0 1 8.48 17.322l-19.862-.01a9.616 9.616 0 0 0-2.745-7.045Q684.842 46 679 46q-5.018 0-7.767 2.265a7.157 7.157 0 0 0-2.752 5.771 6.12 6.12 0 0 0 3.125 5.328q3.124 2.029 10.547 3.51a86.19 86.19 0 0 1 12.506 3.339Q710.394 72 710.388 86.222q0 10.17-8.736 16.455t-22.545 6.277a39.34 39.34 0 0 1-16.6-3.34 27.836 27.836 0 0 1-11.37-9.147 21.236 21.236 0 0 1-4.118-12.544l18.831.009a10.359 10.359 0 0 0 3.915 8.112q3.639 2.821 9.756 2.822 5.7 0 8.626-2.161a6.734 6.734 0 0 0 2.929-5.667Z"/></g></svg>